<svg clip-rule="evenodd" stroke-linejoin="round" stroke-miterlimit="2" version="1.1" viewBox="0 0 33.751 37.679" xmlns="http://www.w3.org/2000/svg"><g fill="#f7911a"><path d="m18.856 19.927c-0.547 0-0.991 0.444-0.991 0.992s0.444 0.991 0.991 0.991c0.55 0 0.995-0.443 0.995-0.991s-0.445-0.992-0.995-0.992"/><path d="m8.4453 20.919c0 0.548 0.445 0.992 0.992 0.992h7.436v-1.984h-7.436c-0.547 0-0.992 0.444-0.992 0.992"/><path d="m24.31 15.961h-14.873c-0.547 0-0.991 0.444-0.991 0.992s0.444 0.991 0.991 0.991h14.873c0.55 0 0.991-0.443 0.991-0.991s-0.441-0.992-0.991-0.992"/><path d="m9.4373 13.978h14.873c0.55 0 0.991-0.444 0.991-0.992 0-0.547-0.441-0.991-0.991-0.991h-14.873c-0.547 0-0.992 0.444-0.992 0.991 0 0.548 0.445 0.992 0.992 0.992"/></g><path d="m26.642 26.049c-0.755 0.813-1.224 2-1.224 3.099 0 0.804 0 1.85 4e-3 2.951-0.889-0.583-1.732-1.135-2.385-1.562-0.688-0.447-1.534-0.693-2.392-0.693-0.307 0-0.61 0.032-0.903 0.097-1.033 0.229-2.042 0.345-2.998 0.345-0.607 0-1.214-0.047-1.8-0.139-3.326-0.525-5.976-1.965-8.103-4.406-2.759-3.168-3.81-6.725-3.207-10.875 0.512-3.535 2.152-6.333 5.017-8.554 2.466-1.912 5.101-2.842 8.061-2.842 0.727 0 1.481 0.059 2.247 0.175 3.274 0.497 5.916 1.97 8.068 4.504 2.663 3.133 3.676 6.653 3.097 10.761-0.381 2.695-1.52 5.03-3.482 7.139zm2.544 2.363c2.377-2.56 3.884-5.562 4.374-9.016 0.713-5.056-0.568-9.591-3.888-13.495-2.681-3.155-6.11-5.069-10.195-5.688-4.773-0.723-9.13 0.392-12.954 3.356-3.534 2.743-5.683 6.375-6.325 10.798-0.744 5.137 0.607 9.729 4.029 13.655 2.699 3.097 6.128 4.915 10.178 5.553 2.042 0.322 4.071 0.201 6.085-0.245 0.194-0.043 0.487 6e-3 0.653 0.115 1.63 1.063 4.434 2.909 6.198 4.065 0.677 0.445 1.577-0.044 1.573-0.856-0.01-2.127-0.028-5.537-0.028-7.503 0-0.236 0.138-0.565 0.3-0.738" fill="#288731"/></svg>
