<svg version="1.1" viewBox="0 0 29.575 29.575" xmlns="http://www.w3.org/2000/svg"><path d="m6.094 8.146 0.217 0.34-0.34 0.217-0.217-0.34zm0.82 2.029-0.566 0.362-0.362-0.566 0.566-0.362zm0.346-3.574 0.362 0.566-0.566 0.362-0.362-0.566zm1.65-1.535 0.58 0.905-0.906 0.58-0.58-0.906zm-0.128 3.912-0.906 0.58-0.58-0.905 0.906-0.58zm-0.672 3.065-0.905 0.58-0.58-0.906 0.906-0.58 0.58 0.906zm16.67-12.043c-0.366 0.74-0.564 1.203-0.885 1.87-0.356 0.739-0.748 1.495-1.11 2.243-1.058 2.19-1.75 3.947-2.18 5.525l-0.043 0.163-0.165 0.032-0.382 0.074c-1.369 0.271-2.213 0.474-3.311 0.894-0.245 0.094-0.48 0.189-0.704 0.285l0.199-0.05c0.55-0.13 1.116-0.224 1.636-0.272a8.02 8.02 0 0 1 0.726-0.033c0.44 0 0.863 0.037 1.258 0.11l0.35 0.065-0.158 0.319-0.11 0.22c-0.31 0.62-0.62 1.27-0.919 1.899l-0.127 0.268c-0.167 0.348-0.35 0.72-0.55 1.087-0.202 0.372-0.42 0.728-0.645 1.058l-2e-3 3e-3 -1e-3 2e-3 -0.042 0.058-0.052 0.073-0.085 0.027-0.06 0.019a27.27 27.27 0 0 1-1.866 0.513c-0.594 0.142-1.21 0.274-1.88 0.403-0.606 0.116-1.242 0.226-1.888 0.326-0.702 0.108-2.155 0.314-2.917 0.415-0.639 0.919-2.542 3.628-4.678 7.317-0.543 1.06-1.602 3.19-1.602 3.19v-3.703l5.026-7.62-0.664-3.12-0.038-0.181 0.155-0.1 1.84-1.195-1.031-1.62-0.144-0.226 0.226-0.145 1.619-1.036-1.031-1.618-0.145-0.227 0.226-0.144 1.619-1.036-1.036-1.618-0.136-0.214 0.205-0.159c2.125-1.545 3.984-2.884 5.623-4.14h-14.901v29.574h29.575v-29.575h-4.796z" fill="#ff7e0f"/></svg>
