<svg version="1.1" viewBox="0 0 41.508 41.717" xmlns="http://www.w3.org/2000/svg"><style type="text/css"><![CDATA[
	.st0{fill:#179C7D;}
	.st1{fill:#FFFFFF;}
]]></style><path class="st0" d="m0 41.697c9.874-5.083 24.338-13.302 41.507-25.317v-4.033c-15.111 9.886-30.476 17.824-41.507 23.075z"/><path class="st0" d="m0 29.654c10.994-4.479 26.36-11.399 41.507-20.408v-1.991c-14.236 7.062-29.027 11.482-41.507 14.238z"/><path class="st0" d="m41.507 41.717v-20.285c-9.45 7.966-18.809 14.864-26.67 20.285z"/><path class="st0" d="m9.53 41.717c7.465-4.432 16.526-10.215 25.55-16.974 2.105-1.578 4.255-3.203 6.428-4.883v-2.514c-13.357 10.013-26.989 18.36-37.639 24.371z"/><path class="st0" d="m0 18.542c12.14-2.135 26.993-5.976 41.507-12.874v-2.261c-14.626 6.566-29.265 9.35-41.507 10.341z"/><path class="st0" d="m0 0v11.62c0.907-0.056 1.831-0.121 2.775-0.194 10.093-0.776 23.867-2.56 38.732-8.987v-2.439z"/><path class="st1" d="m0 11.62v2.128c12.242-0.991 26.881-3.775 41.507-10.341v-0.968c-14.864 6.427-28.639 8.211-38.732 8.987-0.944 0.074-1.868 0.138-2.775 0.194z"/><path class="st1" d="m0 21.493c12.48-2.756 27.271-7.176 41.507-14.238v-1.586c-14.514 6.897-29.367 10.738-41.507 12.873z"/><path class="st1" d="m0 35.422c11.031-5.251 26.396-13.189 41.507-23.075v-3.101c-15.147 9.009-30.513 15.929-41.507 20.408z"/><path class="st1" d="m9.53 41.717h5.308c7.861-5.42 17.22-12.319 26.67-20.285v-1.572c-2.173 1.68-4.322 3.305-6.428 4.883-9.024 6.759-18.085 12.542-25.55 16.974z"/><path class="st1" d="m0 41.717h3.869c10.65-6.011 24.282-14.357 37.638-24.371v-0.966c-17.169 12.016-31.633 20.234-41.507 25.317z"/></svg>
