<?xml version="1.0" encoding="UTF-8"?> <!-- Generator: Adobe Illustrator 23.0.3, SVG Export Plug-In . SVG Version: 6.00 Build 0) --> <svg xmlns="http://www.w3.org/2000/svg" xmlns:xlink="http://www.w3.org/1999/xlink" id="Ebene_1" x="0px" y="0px" viewBox="0 0 420 90" style="enable-background:new 0 0 420 90;" xml:space="preserve"> <style type="text/css"> .st0{fill:#000;} .st1{fill:#EF7D00;} </style> <g> <path class="st0" d="M40.4,45.6c0-6.1-2.2-9.2-6.7-9.2c-4.4,0-8,3.1-10.8,9.3c-1.3,3-2.5,6.8-3.5,11.4c-1,4.6-1.5,8.4-1.5,11.6 c0,6,2.2,9,6.7,9c4.5,0,8-3,10.7-9c1.3-3,2.5-6.8,3.5-11.5C39.8,52.6,40.4,48.7,40.4,45.6 M57.7,48.2c0,4.6-0.8,9.4-2.4,14.6 c-1.6,5.2-3.6,9.6-6.1,13.3C43,85.4,34.2,90,22.9,90c-7.3,0-12.9-2.2-16.8-6.5c-3.8-4.1-5.7-9.6-5.7-16.6c0-4.6,0.8-9.5,2.3-14.7 c1.5-5.1,3.6-9.6,6.1-13.3c6.3-9.2,15-13.8,26.3-13.8c7.3,0,12.9,2.1,16.9,6.4C55.8,35.7,57.7,41.2,57.7,48.2"></path> <path class="st0" d="M120.7,41c0,1.5-0.2,3.1-0.6,5l-8.9,42.9h-18l8.9-43.7c0.2-1.2,0.3-2,0.3-2.5c0-4.1-2.6-6.1-7.9-6.1 c-2.5,0-5.2,0.4-7.9,1.3L76.1,88.8H58l12.3-59c7.5-3.1,16.4-4.6,26.9-4.6C112.9,25.3,120.7,30.5,120.7,41"></path> <path class="st0" d="M220.3,45.4c0-6.4-2.6-9.6-7.8-9.6c-4.4,0-8,2.2-11,6.7c-2.3,3.4-3.9,7.6-4.8,12.6l22.8-3.4 C220,49.6,220.3,47.5,220.3,45.4 M236.2,47.3c0,3.6-0.5,7.3-1.5,11.4l-38.1,5.2c-0.4,9.3,3.7,13.9,12.2,13.9c6,0,11.6-1.2,16.7-3.6 l1.7,11.2c-6.2,3.1-13.7,4.6-22.5,4.6c-7.9,0-14-2.1-18.4-6.3c-4.4-4.2-6.6-10.1-6.6-17.7c0-10.1,2.8-19.1,8.5-27 c6.6-9.2,15.4-13.8,26.5-13.8c6.9,0,12.2,1.9,15.9,5.8C234.4,34.9,236.2,40.3,236.2,47.3"></path> <path class="st0" d="M299.8,41c0,1.5-0.2,3.1-0.6,5l-8.9,42.9h-18l8.9-43.7c0.2-1.2,0.3-2,0.3-2.5c0-4.1-2.6-6.1-7.9-6.1 c-2.5,0-5.2,0.4-7.9,1.3l-10.7,51.1h-18.1l12.3-59c7.5-3.1,16.4-4.6,26.9-4.6C292,25.3,299.8,30.5,299.8,41"></path> <path class="st0" d="M344.4,26.4l-2.4,11.7h-9.6l-6.7,32.4c-0.2,1.1-0.3,2-0.3,2.7c0,2.9,1.5,4.4,4.6,4.4c1.4,0,2.7-0.3,3.9-0.8 L331.6,88c-2.3,1.2-5.4,1.7-9.3,1.7c-10.3,0-15.4-4.6-15.4-13.8c0-1.2,0.2-2.8,0.6-4.7l6.7-33.1h-6.7l2.3-11.7h7l2.7-13.2l19.1-4.6 l-3.8,17.8H344.4z"></path> <path class="st0" d="M375.3,7c0,2.7-1.2,5.1-3.5,7.1c-2.3,2-5,3.1-8,3.1c-2.3,0-4.2-0.7-5.7-2c-1.5-1.4-2.3-3-2.3-5 c0-2.6,1.2-5,3.5-7c2.3-2,5-3.1,8-3.1c2.3,0,4.2,0.7,5.7,2C374.5,3.3,375.3,4.9,375.3,7 M370.9,26.4L358,88.8H340l13-62.4H370.9z"></path> <path class="st0" d="M419.6,29.9l-6.1,9.6c-2.4-1.8-5.4-2.7-9-2.7c-2.5,0-4.6,0.8-6.3,2.3c-1.7,1.5-2.6,3.5-2.6,5.8 c0,2.2,1.5,4.4,4.6,6.4c5.4,3.5,8.2,5.3,8.4,5.3c3.1,2.7,4.6,6.1,4.6,10.1c0,6.4-2.4,11.8-7.1,16.1C401,87.6,394,90,385.1,90 c-7.3,0-13.1-1.5-17.4-4.6l6.7-10.9c2.5,1.9,6,2.9,10.4,2.9c2.8,0,5.1-0.9,6.8-2.6c1.8-1.7,2.7-3.8,2.7-6.1c0-2.3-1.4-4.4-4.3-6.3 c-5.1-3.2-7.8-5-8-5.2c-2.9-2.6-4.3-6-4.3-10.1c0-5.9,2.2-10.9,6.5-15.1c4.7-4.6,10.8-6.8,18.4-6.8C409.4,25.3,415,26.8,419.6,29.9 "></path> <path class="st1" d="M171.9,11.4l-24.1,57L144.3,34l-8.2,1.8c0,0-0.1,0-0.1,0l-5.2,1.1c-3.1,0.7-2.8,2.6-2.7,3.8 c1.2,9.1,4.7,36.2,4.7,36.2c1.6,12.5,10.7,12.5,10.7,12.5h0.3h5.6h3.1L196.3,6L171.9,11.4z"></path> </g> </svg> 