<svg version="1.1" viewBox="0 0 60.64 60.627" xmlns="http://www.w3.org/2000/svg"><g transform="translate(-25.891)" fill="#333"><circle cx="56.174" cy="30.344" r="1.642"/><path d="m60.312 27.79c0-0.905-0.737-1.643-1.642-1.643s-1.64 0.737-1.64 1.644c0 0.905 0.735 1.64 1.64 1.64s1.642-0.735 1.642-1.64zm0 5.11c0-0.905-0.737-1.643-1.642-1.643s-1.64 0.737-1.64 1.644c0 0.905 0.735 1.64 1.64 1.64s1.642-0.734 1.642-1.64z"/><circle cx="61.499" cy="30.263" r="1.642"/><path d="m64.586 26.045c-0.903 0-1.64 0.736-1.64 1.642 0 0.905 0.736 1.64 1.64 1.64 0.906 0 1.644-0.735 1.644-1.64 0-0.906-0.738-1.642-1.644-1.642z"/><circle cx="64.562" cy="32.957" r="1.642"/><path d="m61.388 37.15c0.906 0 1.644-0.735 1.644-1.64 0-0.906-0.737-1.644-1.644-1.644-0.904 0-1.64 0.737-1.64 1.644 0 0.905 0.735 1.64 1.64 1.64zm-0.918 1.54c0-0.907-0.737-1.644-1.644-1.644-0.903 0-1.64 0.737-1.64 1.643 0 0.904 0.736 1.64 1.64 1.64 0.906 0 1.644-0.736 1.644-1.64z"/><circle cx="56.271" cy="42.173" r="1.642"/><circle cx="68.055" cy="30.269" r="1.642"/><circle cx="67.884" cy="35.753" r="1.642"/><path d="m71.722 31.64c-0.903 0-1.64 0.737-1.64 1.644 0 0.903 0.736 1.64 1.64 1.64 0.905 0 1.644-0.737 1.644-1.64 0-0.907-0.74-1.644-1.644-1.644zm1.198 7.2c0-0.905-0.736-1.643-1.643-1.643-0.902 0-1.64 0.738-1.64 1.644 0 0.904 0.737 1.642 1.64 1.642 0.907 0 1.644-0.738 1.644-1.64z"/><circle cx="67.304" cy="41.301" r="1.642"/><path d="m61.643 43.6c0.906 0 1.644-0.735 1.644-1.64 0-0.906-0.737-1.643-1.644-1.643-0.903 0-1.64 0.737-1.64 1.643 0 0.905 0.736 1.64 1.64 1.64zm-2.571 3.84c0.906 0 1.644-0.735 1.644-1.638 0-0.906-0.737-1.644-1.644-1.644-0.902 0-1.64 0.737-1.64 1.644 0 0.903 0.738 1.64 1.64 1.64z"/><circle cx="56.252" cy="49.875" r="1.642"/><path d="m65.87 38.312c0-0.906-0.736-1.644-1.643-1.644s-1.64 0.737-1.64 1.644c0 0.904 0.733 1.64 1.64 1.64s1.644-0.735 1.644-1.64zm9.698-3.67c-0.903 0-1.64 0.737-1.64 1.644 0 0.904 0.736 1.64 1.64 1.64 0.905 0 1.643-0.736 1.643-1.64 0-0.907-0.736-1.644-1.642-1.644z"/><circle cx="74.957" cy="42.197" r="1.642"/><circle cx="78.997" cy="45.728" r="1.642"/><path d="m74.017 46.397c-0.903 0-1.64 0.738-1.64 1.644 0 0.904 0.736 1.64 1.64 1.64 0.906 0 1.644-0.736 1.644-1.64 0-0.905-0.737-1.643-1.643-1.643z"/><circle cx="70.583" cy="44.667" r="1.642"/><path d="m68.14 50.677c0.905 0 1.643-0.735 1.643-1.64s-0.737-1.642-1.644-1.642c-0.904 0-1.64 0.737-1.64 1.642s0.735 1.64 1.64 1.64zm-5.962 0.617c0.906 0 1.645-0.735 1.645-1.64 0-0.906-0.738-1.643-1.645-1.643-0.902 0-1.64 0.738-1.64 1.644 0 0.905 0.737 1.64 1.64 1.64zm4.212-5.904c0-0.907-0.738-1.645-1.644-1.645s-1.642 0.737-1.642 1.644c0 0.902 0.736 1.638 1.642 1.638s1.643-0.736 1.643-1.64z"/><circle cx="77.841" cy="51.881" r="1.642"/><circle cx="71.609" cy="53.066" r="1.641"/><circle cx="68.919" cy="57.846" r="1.642"/><path d="m65.412 52.097c-0.903 0-1.64 0.737-1.64 1.643 0 0.905 0.736 1.64 1.64 1.64 0.906 0 1.643-0.735 1.643-1.64 0-0.906-0.737-1.643-1.643-1.643zm-2.849 4.93c-0.903 0-1.64 0.737-1.64 1.643 0 0.905 0.736 1.64 1.64 1.64 0.906 0 1.644-0.735 1.644-1.64s-0.737-1.643-1.644-1.643z"/><circle cx="59.224" cy="54.149" r="1.642"/><circle cx="56.277" cy="58.986" r="1.641"/><path d="m53.127 52.507c-0.903 0-1.64 0.737-1.64 1.644 0 0.905 0.736 1.64 1.64 1.64 0.905 0 1.643-0.734 1.643-1.64 0-0.905-0.738-1.643-1.643-1.643zm-3.299 4.538c-0.903 0-1.64 0.737-1.64 1.644 0 0.903 0.736 1.64 1.64 1.64 0.906 0 1.644-0.737 1.644-1.64 0-0.908-0.738-1.645-1.644-1.645z"/><circle cx="43.643" cy="57.841" r="1.642"/><circle cx="79.678" cy="39.5" r="1.642"/><circle cx="83.784" cy="42.884" r="1.642"/><circle cx="84.613" cy="36.648" r="1.642"/><circle cx="80.053" cy="33.391" r="1.642"/><circle cx="84.889" cy="30.285" r="1.642"/><circle cx="80.051" cy="27.318" r="1.642"/><circle cx="84.594" cy="23.944" r="1.642"/><path d="m78.006 21.112c0 0.905 0.736 1.64 1.64 1.64 0.906 0 1.643-0.735 1.643-1.64s-0.737-1.642-1.644-1.642c-0.904 0-1.64 0.737-1.64 1.642zm5.774-1.842c0.907 0 1.646-0.735 1.646-1.64s-0.738-1.64-1.645-1.64c-0.9 0-1.64 0.735-1.64 1.64 2e-3 0.906 0.74 1.64 1.64 1.64z"/><circle cx="78.987" cy="14.947" r="1.642"/><path d="m77.827 10.443c0.906 0 1.644-0.736 1.644-1.64 0-0.906-0.736-1.642-1.643-1.642-0.903 0-1.64 0.737-1.64 1.643 0 0.905 0.737 1.64 1.64 1.64z"/><circle cx="74.049" cy="12.601" r="1.641"/><circle cx="70.549" cy="15.985" r="1.642"/><path d="m65.65 19.33c0 0.904 0.738 1.64 1.642 1.64 0.906 0 1.644-0.736 1.644-1.64 0-0.907-0.737-1.644-1.644-1.644-0.903 0-1.64 0.737-1.64 1.643z"/><circle cx="64.77" cy="15.261" r="1.642"/><circle cx="62.16" cy="11.019" r="1.641"/><circle cx="59.095" cy="14.815" r="1.642"/><circle cx="53.254" cy="14.852" r="1.641"/><circle cx="50.784" cy="18.705" r="1.642"/><path d="m51.897 22.005c0 0.904 0.737 1.64 1.64 1.64 0.907 0 1.645-0.736 1.645-1.64 0-0.906-0.737-1.644-1.644-1.644-0.903 0-1.64 0.74-1.64 1.645z"/><circle cx="48.213" cy="22.329" r="1.641"/><circle cx="44.555" cy="24.905" r="1.642"/><path d="m40.708 29.09c0.906 0 1.644-0.736 1.644-1.64 0-0.907-0.737-1.643-1.644-1.643-0.902 0-1.64 0.736-1.64 1.642 0 0.904 0.738 1.64 1.64 1.64z"/><circle cx="41.126" cy="21.796" r="1.642"/><circle cx="36.849" cy="24.348" r="1.641"/><path d="m32.35 28.927c0.906 0 1.644-0.735 1.644-1.64 0-0.906-0.737-1.644-1.644-1.644-0.903 0-1.64 0.737-1.64 1.644 0 0.905 0.736 1.64 1.64 1.64zm-4.54-3.357c0.906 0 1.644-0.735 1.644-1.638 0-0.906-0.737-1.643-1.643-1.643-0.905 0-1.64 0.736-1.64 1.642 0 0.903 0.734 1.64 1.64 1.64z"/><circle cx="32.775" cy="21.125" r="1.642"/><path d="m28.66 15.966c-0.905 0-1.64 0.737-1.64 1.643 0 0.902 0.734 1.638 1.64 1.638s1.643-0.736 1.643-1.64c0-0.905-0.738-1.642-1.643-1.642zm4.83 0.629c0.905 0 1.643-0.735 1.643-1.64 0-0.906-0.737-1.644-1.644-1.644-0.904 0-1.642 0.738-1.642 1.645 0 0.904 0.738 1.64 1.64 1.64zm3.98 0.165c-0.906 0-1.642 0.738-1.642 1.645 0 0.903 0.735 1.64 1.64 1.64 0.907 0 1.643-0.737 1.643-1.64 0-0.907-0.735-1.644-1.64-1.644z"/><circle cx="41.905" cy="15.97" r="1.641"/><circle cx="45.116" cy="19.334" r="1.642"/><circle cx="36.642" cy="30.261" r="1.642"/><path d="m56.28 16.87c-0.903 0-1.64 0.736-1.64 1.642 0 0.905 0.736 1.64 1.64 1.64 0.906 0 1.643-0.735 1.643-1.64 0-0.906-0.736-1.642-1.643-1.642z"/><circle cx="68.129" cy="11.573" r="1.642"/><circle cx="71.613" cy="7.533" r="1.641"/><path d="m65.428 8.526c0.906 0 1.642-0.736 1.642-1.64 0-0.905-0.735-1.642-1.642-1.642-0.904 0-1.64 0.737-1.64 1.643 0 0.904 0.735 1.64 1.64 1.64zm3.502-4.11c0.906 0 1.644-0.735 1.644-1.64s-0.737-1.642-1.644-1.642c-0.903 0-1.64 0.737-1.64 1.642s0.736 1.64 1.64 1.64z"/><circle cx="62.578" cy="1.971" r="1.641"/><path d="m56.258 3.284c0.906 0 1.643-0.736 1.643-1.64-1e-3 -0.907-0.736-1.644-1.641-1.644-0.904 0-1.64 0.737-1.64 1.644 0 0.904 0.736 1.64 1.64 1.64z"/><circle cx="49.818" cy="1.954" r="1.642"/><path d="m43.637 4.433c0.906 0 1.644-0.736 1.644-1.64 0-0.906-0.736-1.644-1.643-1.644-0.903 0-1.64 0.736-1.64 1.643 0 0.904 0.736 1.64 1.64 1.64zm9.445 3.705c0.906 0 1.644-0.736 1.644-1.64 0-0.906-0.737-1.642-1.644-1.642-0.904 0-1.64 0.736-1.64 1.642 0 0.904 0.736 1.64 1.64 1.64z"/><circle cx="46.998" cy="6.902" r="1.642"/><path d="m44.303 9.952c-0.903 0-1.64 0.738-1.64 1.642 0 0.905 0.736 1.64 1.64 1.64 0.906 0 1.644-0.735 1.644-1.64s-0.738-1.642-1.644-1.642zm-5.933 4.304c0.905 0 1.642-0.736 1.642-1.64 0-0.907-0.736-1.643-1.643-1.643-0.904 0-1.642 0.736-1.642 1.642 0 0.905 0.738 1.64 1.64 1.64zm-3.472-3.838c0.906 0 1.644-0.737 1.644-1.64 0-0.907-0.737-1.645-1.644-1.645-0.902 0-1.64 0.738-1.64 1.644 0 0.904 0.738 1.64 1.64 1.64zm5.95-1.223c0.905 0 1.643-0.736 1.643-1.64 0-0.905-0.736-1.643-1.642-1.643-0.903 0-1.64 0.737-1.64 1.644 0 0.903 0.736 1.64 1.64 1.64z"/><circle cx="47.673" cy="15.242" r="1.641"/><circle cx="50.215" cy="10.996" r="1.642"/><circle cx="59.215" cy="6.496" r="1.641"/><circle cx="56.267" cy="10.745" r="1.642"/><path d="m65.813 22.31c0-0.906-0.738-1.643-1.644-1.643s-1.642 0.737-1.642 1.643c0 0.904 0.735 1.64 1.64 1.64s1.645-0.736 1.645-1.64zm-4.389 1.187c-0.905 0-1.64 0.737-1.64 1.644 0 0.904 0.734 1.64 1.64 1.64s1.643-0.736 1.643-1.64c0-0.906-0.738-1.643-1.643-1.643z"/><circle cx="58.851" cy="21.934" r="1.641"/><circle cx="56.254" cy="25.03" r="1.641"/><path d="m52.035 27.79c0 0.905 0.736 1.64 1.64 1.64 0.905 0 1.643-0.735 1.643-1.64s-0.737-1.643-1.643-1.643c-0.904 0-1.64 0.737-1.64 1.644zm-0.985-4.262c-0.904 0-1.64 0.737-1.64 1.643 0 0.904 0.735 1.64 1.64 1.64s1.642-0.735 1.642-1.64-0.738-1.642-1.642-1.642zm-0.15 8.408c0.905 0 1.643-0.737 1.643-1.64 0-0.906-0.737-1.643-1.644-1.643-0.905 0-1.64 0.737-1.64 1.643 0 0.903 0.735 1.64 1.64 1.64z"/><circle cx="47.831" cy="27.733" r="1.641"/><circle cx="47.846" cy="33" r="1.641"/><path d="m44.374 31.897c0.906 0 1.644-0.736 1.644-1.64 0-0.907-0.737-1.645-1.644-1.645-0.903 0-1.64 0.738-1.64 1.644s0.737 1.64 1.64 1.64z"/><circle cx="44.638" cy="35.784" r="1.641"/><path d="m40.71 34.913c0.907 0 1.645-0.736 1.645-1.64 0-0.907-0.737-1.644-1.644-1.644-0.903 0-1.64 0.736-1.64 1.642 0 0.905 0.737 1.64 1.64 1.64zm0.457 5.63c0.906 0 1.644-0.736 1.644-1.64 0-0.906-0.736-1.642-1.643-1.642-0.903 0-1.64 0.737-1.64 1.643 0 0.905 0.737 1.64 1.64 1.64z"/><circle cx="37.474" cy="42.249" r="1.642"/><path d="m34.39 39.535c0-0.906-0.736-1.644-1.642-1.644s-1.64 0.738-1.64 1.645c0 0.905 0.734 1.64 1.64 1.64s1.642-0.735 1.642-1.64zm-4.924-2.849c0-0.906-0.738-1.644-1.644-1.644s-1.64 0.737-1.64 1.644c0 0.904 0.733 1.64 1.64 1.64 0.906 0 1.644-0.736 1.644-1.64zm2.884-1.629c0.906 0 1.644-0.736 1.644-1.64 0-0.906-0.737-1.644-1.644-1.644-0.903 0-1.64 0.737-1.64 1.644 0 0.904 0.736 1.64 1.64 1.64zm-4.82-3.152c0.907 0 1.644-0.736 1.644-1.64 0-0.905-0.736-1.642-1.643-1.642-0.904 0-1.64 0.737-1.64 1.643 2e-3 0.903 0.736 1.64 1.64 1.64zm9.324 6.002c0.906 0 1.644-0.736 1.644-1.64 0-0.907-0.737-1.643-1.644-1.643-0.904 0-1.64 0.736-1.64 1.642 0 0.905 0.736 1.64 1.64 1.64z"/><circle cx="28.643" cy="42.88" r="1.642"/><path d="m35.08 45.74c0-0.906-0.738-1.644-1.645-1.644-0.904 0-1.64 0.737-1.64 1.644 0 0.904 0.735 1.64 1.64 1.64 0.907 0 1.645-0.735 1.645-1.64zm20.237-12.84c0-0.905-0.737-1.643-1.643-1.643-0.903 0-1.64 0.737-1.64 1.644 0 0.905 0.736 1.64 1.64 1.64 0.906 2e-3 1.643-0.734 1.643-1.64z"/><circle cx="56.251" cy="35.585" r="1.642"/><path d="m55.167 38.69c0-0.907-0.737-1.644-1.644-1.644-0.903 0-1.64 0.737-1.64 1.643 0 0.904 0.736 1.64 1.64 1.64 0.907 0 1.644-0.736 1.644-1.64z"/><circle cx="50.8" cy="41.959" r="1.642"/><circle cx="53.283" cy="45.818" r="1.642"/><circle cx="50.24" cy="49.641" r="1.642"/><path d="m44.263 50.66c0.906 0 1.643-0.735 1.643-1.64 0-0.906-0.736-1.643-1.643-1.643-0.904 0-1.64 0.737-1.64 1.643 0 0.905 0.735 1.64 1.64 1.64zm-2.337-4.364c0.906 0 1.643-0.736 1.643-1.64 0-0.906-0.737-1.642-1.644-1.642-0.903 0-1.642 0.735-1.642 1.642 0 0.905 0.738 1.64 1.642 1.64z"/><circle cx="47.667" cy="45.371" r="1.642"/><path d="m46.77 41.287c0-0.906-0.737-1.644-1.642-1.644s-1.64 0.737-1.64 1.644c0 0.905 0.734 1.64 1.64 1.64 0.904 0 1.642-0.736 1.642-1.64zm1.41-1.34c0.906 0 1.643-0.736 1.643-1.64 0-0.906-0.736-1.642-1.643-1.642-0.904 0-1.64 0.736-1.64 1.642 0 0.904 0.735 1.64 1.64 1.64z"/><circle cx="51.047" cy="35.482" r="1.641"/><path d="m39.997 48.042c0-0.906-0.736-1.642-1.643-1.642-0.903 0-1.64 0.736-1.64 1.642 0 0.905 0.736 1.64 1.64 1.64 0.907 0 1.643-0.735 1.643-1.64z"/><circle cx="40.8" cy="53.068" r="1.641"/><path d="m34.854 50.232c-0.903 0-1.64 0.737-1.64 1.643 0 0.903 0.736 1.64 1.64 1.64 0.906 0 1.644-0.736 1.644-1.64 0-0.906-0.737-1.643-1.644-1.643zm12.126 1.868c-0.905 0-1.642 0.737-1.642 1.644 0 0.903 0.736 1.64 1.64 1.64 0.907 0 1.643-0.737 1.643-1.64 0-0.907-0.735-1.644-1.64-1.644z"/><circle cx="61.648" cy="18.721" r="1.642"/><path d="m73.27 18.445c0 0.905 0.737 1.64 1.64 1.64 0.907 0 1.646-0.735 1.646-1.64 0-0.906-0.738-1.642-1.645-1.642-0.903 0-1.64 0.737-1.64 1.642z"/><circle cx="71.279" cy="21.809" r="1.642"/><path d="m75.53 25.983c0.905 0 1.643-0.736 1.643-1.64 0-0.907-0.737-1.645-1.644-1.645-0.904 0-1.64 0.738-1.64 1.644 0 0.905 0.736 1.64 1.64 1.64z"/><circle cx="75.787" cy="30.259" r="1.642"/><circle cx="71.665" cy="27.423" r="1.641"/><path d="m67.863 26.532c0.906 0 1.644-0.736 1.644-1.64 0-0.906-0.737-1.643-1.644-1.643-0.903 0-1.64 0.736-1.64 1.64 0 0.906 0.737 1.642 1.64 1.642z"/></g></svg>
