<?xml version="1.0" encoding="UTF-8" standalone="no"?>
<!DOCTYPE svg PUBLIC "-//W3C//DTD SVG 1.1//EN" "http://www.w3.org/Graphics/SVG/1.1/DTD/svg11.dtd">
<svg width="100%" height="100%" viewBox="0 0 2240 924" version="1.1" xmlns="http://www.w3.org/2000/svg" xmlns:xlink="http://www.w3.org/1999/xlink" xml:space="preserve" xmlns:serif="http://www.serif.com/" style="fill-rule:evenodd;clip-rule:evenodd;stroke-linejoin:round;stroke-miterlimit:2;">
    <g transform="matrix(1,0,0,1,-3841,-1393)">
        <g id="Artboard2" transform="matrix(0.658824,0,0,0.385643,1310.27,1091.61)">
            <rect x="3841.29" y="781.531" width="3400" height="2396" style="fill:none;"/>
            <g transform="matrix(596.432,273.022,-159.814,1018.93,4559.74,2397.52)">
                <path d="M0.259,-0.128C0.264,-0.126 0.269,-0.125 0.274,-0.125C0.28,-0.124 0.285,-0.124 0.29,-0.124C0.303,-0.124 0.316,-0.126 0.328,-0.129C0.34,-0.133 0.351,-0.138 0.362,-0.145C0.372,-0.151 0.382,-0.16 0.39,-0.169C0.398,-0.179 0.405,-0.189 0.41,-0.201L0.508,-0.103C0.495,-0.085 0.481,-0.07 0.465,-0.056C0.449,-0.042 0.432,-0.03 0.413,-0.02C0.394,-0.01 0.374,-0.003 0.354,0.002C0.333,0.007 0.312,0.01 0.29,0.01C0.253,0.01 0.219,0.003 0.186,-0.011C0.154,-0.024 0.126,-0.043 0.101,-0.068C0.077,-0.092 0.058,-0.121 0.044,-0.155C0.03,-0.189 0.023,-0.226 0.023,-0.266C0.023,-0.307 0.03,-0.345 0.044,-0.379C0.058,-0.414 0.077,-0.443 0.101,-0.467C0.126,-0.491 0.154,-0.51 0.186,-0.523C0.219,-0.536 0.253,-0.543 0.29,-0.543C0.312,-0.543 0.333,-0.54 0.354,-0.535C0.375,-0.53 0.395,-0.522 0.413,-0.513C0.432,-0.503 0.45,-0.491 0.466,-0.477C0.482,-0.463 0.496,-0.447 0.509,-0.429L0.259,-0.128ZM0.327,-0.403C0.321,-0.405 0.315,-0.407 0.309,-0.407C0.303,-0.408 0.297,-0.408 0.29,-0.408C0.272,-0.408 0.255,-0.405 0.239,-0.398C0.222,-0.392 0.208,-0.382 0.197,-0.37C0.185,-0.357 0.175,-0.342 0.168,-0.325C0.162,-0.308 0.158,-0.288 0.158,-0.266C0.158,-0.261 0.158,-0.256 0.159,-0.25C0.159,-0.243 0.16,-0.237 0.161,-0.231C0.163,-0.224 0.164,-0.218 0.166,-0.212C0.167,-0.207 0.169,-0.201 0.172,-0.197L0.327,-0.403Z" style="fill-rule:nonzero;"/>
            </g>
            <g transform="matrix(1.51786,0,0,2.59307,-1988.8,-2830.62)">
                <path d="M4306.27,1799.2L4172.82,2147.89L4093.56,1940.82L4172.82,1876.19L4199.4,1806.73L4306.27,1799.2ZM4311.03,1787.99L4204.16,1795.52L4207.11,1787.81L4326.51,1747.56L4311.03,1787.99ZM4280.4,1636.45L4331.43,1717.64L4324.76,1735.08L4205.36,1775.33L4248.04,1663.82L4280.4,1636.45ZM4329.05,1615.84L4386.07,1623.69L4350.56,1716.46L4301.8,1638.88L4329.05,1615.84ZM4382.3,1609.85L4329.3,1602.55L4411.81,1532.77L4382.3,1609.85Z" style="fill:rgb(140,140,140);stroke:rgb(140,140,140);stroke-width:4px;"/>
            </g>
            <g transform="matrix(-9.21338,0,0,15.7399,11198.9,-11726.2)">
                <path d="M767.954,857.279L744.326,919.012L731.269,884.898L738.315,868.525L741.498,866.863L744.326,874.251L746.733,867.961L767.954,857.279ZM726.504,888.533L722.968,879.295L732.658,874.233L726.504,888.533ZM721.41,865.416L725.298,860.141L738.021,865.691L736.065,870.236L725.389,875.812L721.41,865.416ZM721.926,862.355L718.553,866.931L715.775,859.672L721.926,862.355ZM741.169,862.805L741.97,864.899L739.774,866.046L741.169,862.805ZM772.108,850.444L771.015,853.298L749.795,863.981L756.486,846.498L772.108,850.444ZM739.158,848.696L744.479,862.597L732.114,857.204L738.174,848.982L739.158,848.696ZM721.309,856.249L734.161,852.514L728.742,859.866L721.481,856.698L721.309,856.249ZM715.691,853.455L722.207,850.147L722.11,850.973L720.366,853.407L715.927,854.071L715.691,853.455ZM731.541,848.462L732.516,851.008L723.259,852.392L723.457,850.706L725.302,848.131L725.619,847.969L731.541,848.462ZM709.1,852.192L709.627,852.333L714.242,849.36L710.747,848.81L709.1,852.192ZM715.575,846.045L718.236,845.532L717.683,850.242L717.182,850.242L715.575,846.045ZM756.919,834.366L781.442,813.875L768.428,847.877L759.31,845.574L756.919,834.366ZM721.978,847.972L723.02,847.857L723.94,844L721.474,846.449L721.978,847.972ZM754.91,834.07L757.05,844.1L751.599,842.723L754.91,834.07ZM728.052,844.892L728.642,846.434L725.712,846.08L728.052,844.892ZM733.962,842.252L735.216,845.528L734.512,845.987L730.213,845.309L731.292,843.095L732.619,842.195L733.962,842.252ZM711.717,840.702L709.882,843.263L712.041,844.611L712.514,840.582L711.717,840.702ZM714.605,839.619L719.553,840.878L719.016,841.224L715.363,841.599L714.605,839.619ZM710.558,836.688L712.518,837.211L711.096,838.092L710.558,836.688Z" style="stroke:black;stroke-width:0.75px;"/>
            </g>
            <g transform="matrix(617.472,0,0,1054.88,4922.38,2480.13)">
                <path d="M0.184,0L0.051,0L0.051,-0.523L0.083,-0.523L0.127,-0.472C0.148,-0.492 0.173,-0.507 0.2,-0.517C0.227,-0.528 0.256,-0.533 0.285,-0.533C0.317,-0.533 0.347,-0.527 0.375,-0.515C0.404,-0.503 0.429,-0.486 0.45,-0.465C0.471,-0.443 0.488,-0.418 0.5,-0.39C0.512,-0.361 0.518,-0.331 0.518,-0.299L0.518,0L0.385,0L0.385,-0.299C0.385,-0.313 0.382,-0.325 0.377,-0.338C0.372,-0.35 0.365,-0.361 0.355,-0.37C0.346,-0.379 0.336,-0.386 0.324,-0.391C0.312,-0.396 0.299,-0.399 0.285,-0.399C0.271,-0.399 0.258,-0.396 0.246,-0.391C0.233,-0.386 0.222,-0.379 0.213,-0.37C0.204,-0.361 0.197,-0.35 0.192,-0.338C0.187,-0.325 0.184,-0.313 0.184,-0.299L0.184,0Z" style="fill-rule:nonzero;"/>
            </g>
            <g transform="matrix(617.472,0,0,1054.88,5267,2480.13)">
                <path d="M0.435,-0.061C0.424,-0.051 0.413,-0.042 0.401,-0.033C0.388,-0.025 0.376,-0.017 0.362,-0.011C0.349,-0.005 0.335,0 0.321,0.004C0.307,0.008 0.292,0.01 0.278,0.01C0.246,0.01 0.215,0.004 0.187,-0.007C0.159,-0.019 0.134,-0.035 0.113,-0.056C0.091,-0.077 0.074,-0.102 0.062,-0.133C0.05,-0.163 0.044,-0.196 0.044,-0.234L0.044,-0.523L0.177,-0.523L0.177,-0.234C0.177,-0.216 0.179,-0.201 0.185,-0.187C0.19,-0.173 0.197,-0.161 0.207,-0.152C0.216,-0.142 0.226,-0.135 0.239,-0.13C0.251,-0.125 0.264,-0.123 0.278,-0.123C0.292,-0.123 0.304,-0.126 0.317,-0.133C0.329,-0.139 0.34,-0.147 0.349,-0.158C0.358,-0.168 0.365,-0.18 0.37,-0.193C0.375,-0.206 0.378,-0.22 0.378,-0.234L0.378,-0.523L0.511,-0.523L0.511,0L0.479,0L0.435,-0.061Z" style="fill-rule:nonzero;"/>
            </g>
            <g transform="matrix(596.432,273.022,-159.814,1018.93,5573.98,2397.96)">
                <path d="M0.259,-0.128C0.264,-0.126 0.269,-0.125 0.274,-0.125C0.28,-0.124 0.285,-0.124 0.29,-0.124C0.303,-0.124 0.316,-0.126 0.328,-0.129C0.34,-0.133 0.351,-0.138 0.362,-0.145C0.372,-0.151 0.382,-0.16 0.39,-0.169C0.398,-0.179 0.405,-0.189 0.41,-0.201L0.508,-0.103C0.495,-0.085 0.481,-0.07 0.465,-0.056C0.449,-0.042 0.432,-0.03 0.413,-0.02C0.394,-0.01 0.374,-0.003 0.354,0.002C0.333,0.007 0.312,0.01 0.29,0.01C0.253,0.01 0.219,0.003 0.186,-0.011C0.154,-0.024 0.126,-0.043 0.101,-0.068C0.077,-0.092 0.058,-0.121 0.044,-0.155C0.03,-0.189 0.023,-0.226 0.023,-0.266C0.023,-0.307 0.03,-0.345 0.044,-0.379C0.058,-0.414 0.077,-0.443 0.101,-0.467C0.126,-0.491 0.154,-0.51 0.186,-0.523C0.219,-0.536 0.253,-0.543 0.29,-0.543C0.312,-0.543 0.333,-0.54 0.354,-0.535C0.375,-0.53 0.395,-0.522 0.413,-0.513C0.432,-0.503 0.45,-0.491 0.466,-0.477C0.482,-0.463 0.496,-0.447 0.509,-0.429L0.259,-0.128ZM0.327,-0.403C0.321,-0.405 0.315,-0.407 0.309,-0.407C0.303,-0.408 0.297,-0.408 0.29,-0.408C0.272,-0.408 0.255,-0.405 0.239,-0.398C0.222,-0.392 0.208,-0.382 0.197,-0.37C0.185,-0.357 0.175,-0.342 0.168,-0.325C0.162,-0.308 0.158,-0.288 0.158,-0.266C0.158,-0.261 0.158,-0.256 0.159,-0.25C0.159,-0.243 0.16,-0.237 0.161,-0.231C0.163,-0.224 0.164,-0.218 0.166,-0.212C0.167,-0.207 0.169,-0.201 0.172,-0.197L0.327,-0.403Z" style="fill-rule:nonzero;"/>
            </g>
            <g transform="matrix(1.51786,0,0,2.59307,-1988.8,-2830.62)">
                <path d="M5243.11,1766.73L5258.27,1758.51L5293.93,1773.78L5297.74,1778.18L5297.74,2048.05L5243.11,2048.05L5243.11,1766.73ZM5319.07,1715.76L5319.07,1749.72L5317.69,1749.13L5298.5,1726.92L5319.07,1715.76ZM5276.41,1757.74L5301.63,1768.54L5287.24,1751.87L5276.41,1757.74ZM5257.58,1744.84L5247.11,1750.51L5247.11,1740.36L5257.58,1744.84ZM5261.45,1702.61L5289.23,1734.78L5276.39,1741.74L5261.45,1735.34L5261.45,1702.61ZM5319.4,1700.05L5292.66,1706.66L5284.74,1665.73L5314.9,1680.76L5319.4,1700.05Z" style="fill-rule:nonzero;"/>
            </g>
            <g transform="matrix(596.432,273.022,-159.814,1018.93,6040.68,2397.96)">
                <path d="M0.259,-0.128C0.264,-0.126 0.269,-0.125 0.274,-0.125C0.28,-0.124 0.285,-0.124 0.29,-0.124C0.303,-0.124 0.316,-0.126 0.328,-0.129C0.34,-0.133 0.351,-0.138 0.362,-0.145C0.372,-0.151 0.382,-0.16 0.39,-0.169C0.398,-0.179 0.405,-0.189 0.41,-0.201L0.508,-0.103C0.495,-0.085 0.481,-0.07 0.465,-0.056C0.449,-0.042 0.432,-0.03 0.413,-0.02C0.394,-0.01 0.374,-0.003 0.354,0.002C0.333,0.007 0.312,0.01 0.29,0.01C0.253,0.01 0.219,0.003 0.186,-0.011C0.154,-0.024 0.126,-0.043 0.101,-0.068C0.077,-0.092 0.058,-0.121 0.044,-0.155C0.03,-0.189 0.023,-0.226 0.023,-0.266C0.023,-0.307 0.03,-0.345 0.044,-0.379C0.058,-0.414 0.077,-0.443 0.101,-0.467C0.126,-0.491 0.154,-0.51 0.186,-0.523C0.219,-0.536 0.253,-0.543 0.29,-0.543C0.312,-0.543 0.333,-0.54 0.354,-0.535C0.375,-0.53 0.395,-0.522 0.413,-0.513C0.432,-0.503 0.45,-0.491 0.466,-0.477C0.482,-0.463 0.496,-0.447 0.509,-0.429L0.259,-0.128ZM0.327,-0.403C0.321,-0.405 0.315,-0.407 0.309,-0.407C0.303,-0.408 0.297,-0.408 0.29,-0.408C0.272,-0.408 0.255,-0.405 0.239,-0.398C0.222,-0.392 0.208,-0.382 0.197,-0.37C0.185,-0.357 0.175,-0.342 0.168,-0.325C0.162,-0.308 0.158,-0.288 0.158,-0.266C0.158,-0.261 0.158,-0.256 0.159,-0.25C0.159,-0.243 0.16,-0.237 0.161,-0.231C0.163,-0.224 0.164,-0.218 0.166,-0.212C0.167,-0.207 0.169,-0.201 0.172,-0.197L0.327,-0.403Z" style="fill-rule:nonzero;"/>
            </g>
            <g transform="matrix(617.472,0,0,1054.88,6407.88,2480.13)">
                <path d="M0.338,0L0.033,0L0.033,-0.133L0.338,-0.133C0.347,-0.133 0.355,-0.136 0.361,-0.143C0.368,-0.149 0.371,-0.157 0.371,-0.166C0.371,-0.175 0.368,-0.182 0.361,-0.185C0.355,-0.188 0.347,-0.189 0.338,-0.189L0.199,-0.189C0.176,-0.189 0.154,-0.193 0.134,-0.202C0.114,-0.211 0.097,-0.223 0.082,-0.238C0.067,-0.253 0.055,-0.271 0.046,-0.291C0.038,-0.311 0.033,-0.333 0.033,-0.356C0.033,-0.379 0.038,-0.401 0.046,-0.421C0.055,-0.441 0.067,-0.459 0.082,-0.474C0.097,-0.489 0.114,-0.5 0.134,-0.509C0.154,-0.518 0.176,-0.522 0.199,-0.522L0.469,-0.522L0.469,-0.389L0.199,-0.389C0.19,-0.389 0.182,-0.386 0.176,-0.379C0.169,-0.373 0.166,-0.365 0.166,-0.356C0.166,-0.347 0.169,-0.338 0.176,-0.332C0.182,-0.325 0.19,-0.322 0.199,-0.322L0.338,-0.322C0.361,-0.322 0.382,-0.318 0.402,-0.31C0.423,-0.303 0.44,-0.292 0.455,-0.278C0.47,-0.265 0.482,-0.248 0.491,-0.229C0.5,-0.21 0.504,-0.189 0.504,-0.166C0.504,-0.143 0.5,-0.121 0.491,-0.101C0.482,-0.081 0.47,-0.064 0.455,-0.049C0.44,-0.033 0.423,-0.022 0.402,-0.013C0.382,-0.004 0.361,0 0.338,0Z" style="fill-rule:nonzero;"/>
            </g>
            <g transform="matrix(617.472,0,0,1054.88,6731.38,2480.13)">
                <path d="M0.338,0L0.033,0L0.033,-0.133L0.338,-0.133C0.347,-0.133 0.355,-0.136 0.361,-0.143C0.368,-0.149 0.371,-0.157 0.371,-0.166C0.371,-0.175 0.368,-0.182 0.361,-0.185C0.355,-0.188 0.347,-0.189 0.338,-0.189L0.199,-0.189C0.176,-0.189 0.154,-0.193 0.134,-0.202C0.114,-0.211 0.097,-0.223 0.082,-0.238C0.067,-0.253 0.055,-0.271 0.046,-0.291C0.038,-0.311 0.033,-0.333 0.033,-0.356C0.033,-0.379 0.038,-0.401 0.046,-0.421C0.055,-0.441 0.067,-0.459 0.082,-0.474C0.097,-0.489 0.114,-0.5 0.134,-0.509C0.154,-0.518 0.176,-0.522 0.199,-0.522L0.469,-0.522L0.469,-0.389L0.199,-0.389C0.19,-0.389 0.182,-0.386 0.176,-0.379C0.169,-0.373 0.166,-0.365 0.166,-0.356C0.166,-0.347 0.169,-0.338 0.176,-0.332C0.182,-0.325 0.19,-0.322 0.199,-0.322L0.338,-0.322C0.361,-0.322 0.382,-0.318 0.402,-0.31C0.423,-0.303 0.44,-0.292 0.455,-0.278C0.47,-0.265 0.482,-0.248 0.491,-0.229C0.5,-0.21 0.504,-0.189 0.504,-0.166C0.504,-0.143 0.5,-0.121 0.491,-0.101C0.482,-0.081 0.47,-0.064 0.455,-0.049C0.44,-0.033 0.423,-0.022 0.402,-0.013C0.382,-0.004 0.361,0 0.338,0Z" style="fill-rule:nonzero;"/>
            </g>
            <g transform="matrix(0.815153,-4.08186,2.92924,1.70728,-4085.5,16960.7)">
                <path d="M4560.9,1811.76L4569.19,1820.24L4560.35,1817.41L4546.77,1806.26L4560.9,1811.76ZM4550.43,1788.74L4550.55,1788.92C4551.98,1791.05 4553.34,1793.22 4554.61,1795.43L4536.24,1795.43L4543.76,1784.98L4550.43,1788.74ZM4526.85,1771.09L4528.31,1787.72L4536.4,1776.47L4526.85,1771.09ZM4534.37,1743.96L4548.51,1753.59L4548.51,1747.17L4536.61,1740.46L4534.37,1743.96ZM4539.77,1760.22C4540.79,1761.09 4541.79,1761.98 4542.78,1762.88C4546.1,1765.94 4549.23,1769.19 4552.16,1772.65L4551.67,1773.33L4539.77,1766.63L4539.77,1760.22ZM4522.64,1752.77C4524.29,1753.88 4525.92,1755.04 4527.51,1756.24L4528.47,1758.27L4528.47,1764.37L4518.73,1758.88L4522.64,1752.77ZM4511.73,1735.02C4513.6,1735.92 4515.45,1736.87 4517.27,1737.88C4518.88,1738.78 4520.46,1739.7 4522.01,1740.67L4514.05,1753.11L4506.62,1744.95L4511.73,1735.02ZM4483.35,1732.71C4484.09,1732.89 4484.84,1733.09 4485.59,1733.29C4490.81,1734.69 4495.86,1736.44 4500.73,1738.56L4496.38,1747.01L4483.35,1732.71Z" style="fill-rule:nonzero;stroke:black;stroke-width:1.19px;stroke-linecap:round;"/>
            </g>
        </g>
    </g>
</svg>
