<svg viewBox="0 0 167 210" xmlns="http://www.w3.org/2000/svg" fill-rule="evenodd" clip-rule="evenodd" stroke-linejoin="round" stroke-miterlimit="2"><path fill="none" d="M0 0h166.619v209.395H0z"/><path d="M115.907 85.322L76.773 187.569l-21.627-56.503 11.671-27.117 5.272-2.754 4.684 12.237 3.987-10.417 35.147-17.693zm-68.653 51.766l-5.856-15.302 16.05-8.384-10.194 23.686zm-8.438-38.289l6.44-8.737 21.074 9.192-3.239 7.527-17.684 9.237-6.591-17.219zm.855-5.07l-5.586 7.578-4.602-12.022 10.188 4.444zm31.872.744l1.328 3.469-3.638 1.9 2.31-5.369zm51.245-20.472l-1.81 4.727-35.147 17.693 11.083-28.956 25.874 6.536zm-54.575-2.896l8.813 23.025-20.48-8.934 10.038-13.617 1.629-.474zm-29.562 12.51l21.286-6.187-8.976 12.177-12.026-5.245-.284-.745zm-9.306-4.628l10.792-5.479-.16 1.368-2.888 4.032-7.353 1.1-.391-1.021zm26.252-8.269l1.614 4.216-15.331 2.293.328-2.793 3.055-4.265.526-.267 9.808.816zm-37.169 6.178l.874.233 7.642-4.924-5.787-.911-2.729 5.602zm10.725-10.182l4.407-.849-.915 7.801h-.831l-2.661-6.952zm68.478-19.343l40.616-33.94-21.555 56.317-15.101-3.814-3.96-18.563zM39.758 69.906l1.726-.19 1.524-6.389-4.085 4.057.835 2.522zm54.546-23.025l3.544 16.612-9.03-2.281 5.486-14.331zM49.818 64.805l.977 2.553-4.853-.586 3.876-1.967zm9.79-4.372l2.076 5.424-1.165.761-7.121-1.122 1.786-3.668 2.199-1.49 2.225.095zm-36.845-2.569l-3.04 4.243 3.577 2.232.783-6.672-1.32.197zm4.784-1.793l8.194 2.085-.889.574-6.05.62-1.255-3.279zm-6.703-4.855l3.246.867-2.356 1.459-.89-2.326z" stroke="#000"/></svg>